P3
#Created with GIMP
8 5
255
0 0 0 75 22 39 36 48 33 107 28 0 12 40 65 22 0 92 14 61 83 94 120 127 
10 14 20 138 0 56 39 80 30 205 70 0 0 53 105 39 0 129 0 82 93 178 192 194 
16 28 31 255 30 70 48 193 16 255 154 29 35 129 220 122 45 255 0 193 177 199 209 213 
33 43 49 255 60 32 190 255 23 255 203 35 71 193 255 147 59 246 83 241 255 224 231 232 
61 74 80 255 155 136 211 254 101 242 231 122 146 236 255 185 108 255 134 254 255 240 242 244 
