P3
# Created by GIMP version 2.10.38 PNM plug-in
8 5
255
0
0
0
52
6
41
0
43
32
107
28
0
0
27
74
20
10
54
0
34
42
94
120
127
10
14
20
138
0
56
12
83
23
241
95
0
9
66
123
91
1
184
7
84
125
178
192
194
16
28
31
255
30
70
48
193
16
255
154
29
35
129
220
116
45
255
0
158
203
199
209
213
33
43
49
255
60
32
190
255
23
255
203
35
71
193
255
127
109
255
77
234
206
224
231
232
61
74
80
254
171
155
211
254
101
242
231
122
165
226
255
180
174
255
134
254
255
240
242
244
